<svg width="145" height="37" viewBox="0 0 145 37" fill="none" xmlns="http://www.w3.org/2000/svg">
<rect width="145" height="37" rx="18.5" fill="#C65A32"/>
<path d="M26.2139 23V12.4404H33.6904V23H32.2617V13.5361H27.6426V23H26.2139ZM36.4512 22.0547C35.7852 21.3457 35.4521 20.4147 35.4521 19.2617C35.4521 18.1087 35.7852 17.1777 36.4512 16.4688C37.1172 15.7598 37.9945 15.4053 39.083 15.4053C40.1715 15.4053 41.0488 15.7598 41.7148 16.4688C42.3809 17.1777 42.7139 18.1087 42.7139 19.2617C42.7139 20.4147 42.3809 21.3457 41.7148 22.0547C41.0488 22.7565 40.1715 23.1074 39.083 23.1074C37.9945 23.1074 37.1172 22.7565 36.4512 22.0547ZM37.4502 17.1885C37.042 17.7113 36.8379 18.4023 36.8379 19.2617C36.8379 20.1211 37.042 20.8122 37.4502 21.335C37.8656 21.8577 38.4098 22.1191 39.083 22.1191C39.7562 22.1191 40.2969 21.8577 40.7051 21.335C41.1204 20.8122 41.3281 20.1211 41.3281 19.2617C41.3281 18.4023 41.1204 17.7113 40.7051 17.1885C40.2969 16.6657 39.7562 16.4043 39.083 16.4043C38.4098 16.4043 37.8656 16.6657 37.4502 17.1885ZM43.4658 22.0117H43.9062C44.4648 22.0117 44.916 21.779 45.2598 21.3135C45.6035 20.848 45.7754 20.2357 45.7754 19.4766V15.5234H50.7275V22.0117H51.8232V25.3311H50.835V23H44.4541V25.3311H43.4658V22.0117ZM45.7002 22.0117H49.4062V16.5117H47.0967V19.4766C47.0967 20.0423 46.9714 20.5436 46.7207 20.9805C46.4772 21.4173 46.137 21.7611 45.7002 22.0117ZM53.3594 27.4043V15.5234H54.5303L54.6807 16.4043L55.4541 15.5234H57.2588C58.2327 15.5234 59.0169 15.8672 59.6113 16.5547C60.2129 17.235 60.5137 18.1374 60.5137 19.2617C60.5137 20.4147 60.2236 21.3457 59.6436 22.0547C59.0706 22.7565 58.3115 23.1074 57.3662 23.1074C56.8148 23.1074 56.3027 22.9499 55.8301 22.6348C55.3574 22.3197 54.9743 21.8936 54.6807 21.3564V27.4043H53.3594ZM54.6807 19.1758C54.6878 19.985 54.9277 20.6797 55.4004 21.2598C55.8802 21.8327 56.4567 22.1191 57.1299 22.1191C57.7314 22.1191 58.2148 21.8577 58.5801 21.335C58.9453 20.8122 59.1279 20.1211 59.1279 19.2617C59.1279 18.431 58.9453 17.765 58.5801 17.2637C58.2148 16.7624 57.7314 16.5117 57.1299 16.5117H54.6807V19.1758ZM62.7266 22.0547C62.0605 21.3457 61.7275 20.4147 61.7275 19.2617C61.7275 18.1087 62.0605 17.1777 62.7266 16.4688C63.3926 15.7598 64.2699 15.4053 65.3584 15.4053C66.4469 15.4053 67.3242 15.7598 67.9902 16.4688C68.6562 17.1777 68.9893 18.1087 68.9893 19.2617C68.9893 20.4147 68.6562 21.3457 67.9902 22.0547C67.3242 22.7565 66.4469 23.1074 65.3584 23.1074C64.2699 23.1074 63.3926 22.7565 62.7266 22.0547ZM63.7256 17.1885C63.3174 17.7113 63.1133 18.4023 63.1133 19.2617C63.1133 20.1211 63.3174 20.8122 63.7256 21.335C64.141 21.8577 64.6852 22.1191 65.3584 22.1191C66.0316 22.1191 66.5723 21.8577 66.9805 21.335C67.3958 20.8122 67.6035 20.1211 67.6035 19.2617C67.6035 18.4023 67.3958 17.7113 66.9805 17.1885C66.5723 16.6657 66.0316 16.4043 65.3584 16.4043C64.6852 16.4043 64.141 16.6657 63.7256 17.1885ZM71.2666 21.625C70.5505 20.6367 70.1924 19.3333 70.1924 17.7148C70.1924 16.0964 70.5934 14.7965 71.3955 13.8154C72.1976 12.8271 73.2575 12.333 74.5752 12.333L76.4658 12.3223V12.6553C76.4658 12.8844 76.3047 13.0706 75.9824 13.2139C75.6602 13.3571 75.2054 13.4287 74.6182 13.4287C73.7803 13.4287 73.0892 13.7617 72.5449 14.4277C72.0078 15.0938 71.6963 15.9889 71.6104 17.1133C71.904 16.5905 72.2943 16.1751 72.7812 15.8672C73.2754 15.5592 73.8089 15.4053 74.3818 15.4053C75.3988 15.4053 76.2188 15.7598 76.8418 16.4688C77.472 17.1777 77.7871 18.1087 77.7871 19.2617C77.7871 20.4147 77.4469 21.3457 76.7666 22.0547C76.0934 22.7565 75.2018 23.1074 74.0918 23.1074C72.9245 23.1074 71.9827 22.6133 71.2666 21.625ZM71.6748 18.9932C71.818 19.9385 72.1009 20.6868 72.5234 21.2383C72.9531 21.7826 73.4759 22.0547 74.0918 22.0547C74.7865 22.0547 75.3451 21.8005 75.7676 21.292C76.1901 20.7764 76.4014 20.0996 76.4014 19.2617C76.4014 18.4382 76.1937 17.7757 75.7783 17.2744C75.3701 16.766 74.8294 16.5117 74.1562 16.5117C73.4688 16.5117 72.8815 16.7552 72.3945 17.2422C71.9147 17.722 71.6748 18.3057 71.6748 18.9932ZM79.4414 23V15.5234H80.7627V18.4883H84.7266V15.5234H86.0479V23H84.7266V19.5947H80.7627V23H79.4414ZM88.7656 22.0547C88.0566 21.3457 87.7021 20.4147 87.7021 19.2617C87.7021 18.1087 88.0244 17.1777 88.6689 16.4688C89.3135 15.7598 90.1657 15.4053 91.2256 15.4053C92.2139 15.4053 93.0088 15.7132 93.6104 16.3291C94.2191 16.945 94.5234 17.7542 94.5234 18.7568V19.1543C94.5234 19.5911 94.305 19.8096 93.8682 19.8096H89.0557C89.1416 20.5329 89.3958 21.0807 89.8184 21.4531C90.2409 21.8255 90.821 22.0117 91.5586 22.0117C92.3177 22.0117 92.9766 21.8148 93.5352 21.4209V22.8281C92.8978 23.0143 92.2389 23.1074 91.5586 23.1074C90.4056 23.1074 89.4746 22.7565 88.7656 22.0547ZM89.0234 19.2617C89.0234 19.4264 89.027 19.5482 89.0342 19.627L89.9043 18.8213H93.2666C93.2666 18.0335 93.0911 17.4355 92.7402 17.0273C92.3965 16.612 91.8916 16.4043 91.2256 16.4043C90.5094 16.4043 89.9616 16.6478 89.582 17.1348C89.2096 17.6217 89.0234 18.3307 89.0234 19.2617ZM96.6934 22.0547C95.9844 21.3457 95.6299 20.4147 95.6299 19.2617C95.6299 18.1087 95.9521 17.1777 96.5967 16.4688C97.2412 15.7598 98.0934 15.4053 99.1533 15.4053C100.142 15.4053 100.937 15.7132 101.538 16.3291C102.147 16.945 102.451 17.7542 102.451 18.7568V19.1543C102.451 19.5911 102.233 19.8096 101.796 19.8096H96.9834C97.0693 20.5329 97.3236 21.0807 97.7461 21.4531C98.1686 21.8255 98.7487 22.0117 99.4863 22.0117C100.245 22.0117 100.904 21.8148 101.463 21.4209V22.8281C100.826 23.0143 100.167 23.1074 99.4863 23.1074C98.3333 23.1074 97.4023 22.7565 96.6934 22.0547ZM96.9512 19.2617C96.9512 19.4264 96.9548 19.5482 96.9619 19.627L97.832 18.8213H101.194C101.194 18.0335 101.019 17.4355 100.668 17.0273C100.324 16.612 99.8193 16.4043 99.1533 16.4043C98.4372 16.4043 97.8893 16.6478 97.5098 17.1348C97.1374 17.6217 96.9512 18.3307 96.9512 19.2617Z" fill="white"/>
<path d="M114 13.5L120 18.1512L114 23.5" stroke="white"/>
</svg>
