<svg width="61" height="77" viewBox="0 0 61 77" fill="none" xmlns="http://www.w3.org/2000/svg">
<path d="M52.8002 32.2004C54.6669 32.6671 56.1669 33.3004 57.3002 34.1004C58.4335 34.8337 59.2669 35.6004 59.8002 36.4004C60.4002 37.1337 60.7335 37.8671 60.8002 38.6004C60.8669 39.2671 60.8002 39.7337 60.6002 40.0004C60.1335 40.6004 59.7002 41.8004 59.3002 43.6004C58.9002 45.3337 58.3669 47.3671 57.7002 49.7004C57.2335 51.5671 56.4669 53.4337 55.4002 55.3004C54.4002 57.1004 53.0335 58.9004 51.3002 60.7004C49.6335 62.4337 47.5335 64.1337 45.0002 65.8004C42.5335 67.4671 39.6002 69.0671 36.2002 70.6004C33.6002 71.8004 31.0002 72.7671 28.4002 73.5004C25.8669 74.2337 23.3335 74.8004 20.8002 75.2004C18.3335 75.6004 15.9002 75.9004 13.5002 76.1004C11.1002 76.3004 8.76686 76.4671 6.5002 76.6004C4.36686 76.7337 2.83353 76.6337 1.9002 76.3004C0.966862 75.9671 0.400195 75.5671 0.200195 75.1004C0.066862 74.5671 0.200195 74.0671 0.600195 73.6004C1.0002 73.1337 1.43353 72.8671 1.9002 72.8004C3.63353 72.5337 5.63353 72.3004 7.9002 72.1004C10.2335 71.9004 12.5002 71.7004 14.7002 71.5004C16.9669 71.2337 19.0669 70.9337 21.0002 70.6004C22.9335 70.2671 24.4335 69.8337 25.5002 69.3004C28.9669 67.6337 31.9669 66.0004 34.5002 64.4004C37.1002 62.8004 39.2669 61.0671 41.0002 59.2004C42.8002 57.2671 44.2335 55.1671 45.3002 52.9004C46.3669 50.5671 47.1002 47.9004 47.5002 44.9004C47.7002 43.5004 47.6335 42.3671 47.3002 41.5004C46.9669 40.6337 46.4335 39.9337 45.7002 39.4004C45.0335 38.8671 44.2335 38.5004 43.3002 38.3004C42.3669 38.1004 41.4002 38.0004 40.4002 38.0004C39.1335 38.0004 37.9335 38.1337 36.8002 38.4004C35.6669 38.6004 34.7335 38.7671 34.0002 38.9004C33.3335 39.1004 32.6002 39.3671 31.8002 39.7004C31.0002 39.9671 30.1669 40.2671 29.3002 40.6004C28.5002 40.9337 27.6669 41.2337 26.8002 41.5004C25.9335 41.7004 25.1335 41.8004 24.4002 41.8004C23.8002 41.8004 23.2335 41.7337 22.7002 41.6004C22.1669 41.4004 21.7335 41.0337 21.4002 40.5004C20.8669 39.8337 20.6335 39.1004 20.7002 38.3004C20.7669 37.4337 20.9669 36.6337 21.3002 35.9004C21.6335 35.1671 22.0002 34.5004 22.4002 33.9004C22.8669 33.3004 23.2335 32.9004 23.5002 32.7004C24.5669 31.9004 25.6335 31.0004 26.7002 30.0004C27.8335 28.9337 28.8335 27.8671 29.7002 26.8004C30.6335 25.7337 31.4335 24.7004 32.1002 23.7004C32.8335 22.6337 33.4002 21.7337 33.8002 21.0004C34.2002 20.2004 34.6002 19.3004 35.0002 18.3004C35.4002 17.2337 35.7002 16.2337 35.9002 15.3004C36.1002 14.3671 36.2002 13.5004 36.2002 12.7004C36.2002 11.8337 36.0335 11.2004 35.7002 10.8004C35.2335 10.2671 34.6002 9.90039 33.8002 9.70039C33.0002 9.50039 32.0335 9.40039 30.9002 9.40039C29.3669 9.40039 27.7669 9.50039 26.1002 9.70039C24.9669 9.90039 23.8669 10.0004 22.8002 10.0004C21.4669 10.2004 20.0669 10.2337 18.6002 10.1004C17.8669 10.0337 17.2669 10.0004 16.8002 10.0004C16.3335 10.0004 15.9335 9.96705 15.6002 9.90039C15.2669 9.83372 14.9335 9.83372 14.6002 9.90039C14.2669 9.96705 14.0335 10.2004 13.9002 10.6004C13.7669 10.9337 13.7669 11.4337 13.9002 12.1004C14.1002 12.7671 14.5669 13.7004 15.3002 14.9004C16.1669 16.1671 16.7002 17.2337 16.9002 18.1004C17.1669 18.9004 17.1335 19.3671 16.8002 19.5004C16.4669 19.6337 16.1002 19.5671 15.7002 19.3004C15.3002 19.0337 14.8335 18.6671 14.3002 18.2004C13.8335 17.7337 13.3002 17.2337 12.7002 16.7004C12.1669 16.1004 11.6002 15.6004 11.0002 15.2004C10.2002 14.6004 9.46686 14.1004 8.8002 13.7004C8.2002 13.2337 7.63353 12.8337 7.1002 12.5004C6.56686 12.1671 6.0002 11.8337 5.4002 11.5004C4.86686 11.1671 4.23353 10.8004 3.5002 10.4004C2.76686 10.0004 2.46686 9.53372 2.6002 9.00039C2.73353 8.46705 3.06686 7.93372 3.6002 7.40039C4.2002 6.80039 4.86686 6.23372 5.6002 5.70039C6.4002 5.10039 7.06686 4.56705 7.6002 4.10039C8.13353 3.70039 8.7002 3.46706 9.3002 3.40039C9.9002 3.26705 10.4669 3.26705 11.0002 3.40039C11.5335 3.46706 12.0669 3.60039 12.6002 3.80039C13.1335 4.00039 13.6335 4.16705 14.1002 4.30039L16.2002 5.10039C17.6669 5.43372 19.2335 5.60038 20.9002 5.60038C21.5669 5.60038 22.2335 5.56705 22.9002 5.50039C23.6335 5.43372 24.3335 5.30039 25.0002 5.10039C26.0669 4.83372 27.3002 4.43372 28.7002 3.90039C30.1002 3.30039 31.5002 2.73372 32.9002 2.20039C34.3002 1.66705 35.6335 1.20039 36.9002 0.800387C38.2335 0.400388 39.4002 0.167056 40.4002 0.10039C41.4002 0.0337202 42.3335 0.23372 43.2002 0.700388C44.0669 1.10039 44.8335 1.60039 45.5002 2.20039C46.1669 2.73372 46.7335 3.30039 47.2002 3.90039C47.6669 4.43372 48.0002 4.80039 48.2002 5.00039C48.4002 5.20039 48.7669 5.46706 49.3002 5.80039C49.8335 6.13372 50.2669 6.53372 50.6002 7.00038C50.9335 7.46705 51.0335 7.96705 50.9002 8.50039C50.8335 9.03372 50.3335 9.53372 49.4002 10.0004C47.6002 11.0004 46.0335 12.6004 44.7002 14.8004C43.3669 17.0004 41.6335 19.8004 39.5002 23.2004C37.4335 26.3337 35.9669 28.7004 35.1002 30.3004C34.2335 31.8337 33.9669 32.8671 34.3002 33.4004C34.3669 33.6004 34.8002 33.6337 35.6002 33.5004C36.4002 33.3004 37.4002 33.0671 38.6002 32.8004C39.8002 32.5337 41.1669 32.2671 42.7002 32.0004C44.3002 31.7337 45.9669 31.6004 47.7002 31.6004C49.3669 31.6004 51.0669 31.8004 52.8002 32.2004Z" fill="#2E261D"/>
</svg>
