<svg width="179" height="179" viewBox="0 0 179 179" fill="none" xmlns="http://www.w3.org/2000/svg">
<circle cx="89.5" cy="89.5" r="89.5" fill="#C65A32"/>
<path d="M25.2139 96V85.4404H32.6904V96H31.2617V86.5361H26.6426V96H25.2139ZM35.4512 95.0547C34.7852 94.3457 34.4521 93.4147 34.4521 92.2617C34.4521 91.1087 34.7852 90.1777 35.4512 89.4688C36.1172 88.7598 36.9945 88.4053 38.083 88.4053C39.1715 88.4053 40.0488 88.7598 40.7148 89.4688C41.3809 90.1777 41.7139 91.1087 41.7139 92.2617C41.7139 93.4147 41.3809 94.3457 40.7148 95.0547C40.0488 95.7565 39.1715 96.1074 38.083 96.1074C36.9945 96.1074 36.1172 95.7565 35.4512 95.0547ZM36.4502 90.1885C36.042 90.7113 35.8379 91.4023 35.8379 92.2617C35.8379 93.1211 36.042 93.8122 36.4502 94.335C36.8656 94.8577 37.4098 95.1191 38.083 95.1191C38.7562 95.1191 39.2969 94.8577 39.7051 94.335C40.1204 93.8122 40.3281 93.1211 40.3281 92.2617C40.3281 91.4023 40.1204 90.7113 39.7051 90.1885C39.2969 89.6657 38.7562 89.4043 38.083 89.4043C37.4098 89.4043 36.8656 89.6657 36.4502 90.1885ZM43.9805 95.0547C43.2715 94.3457 42.917 93.4147 42.917 92.2617C42.917 91.1087 43.2715 90.1777 43.9805 89.4688C44.6895 88.7598 45.6204 88.4053 46.7734 88.4053C47.3034 88.4053 47.9622 88.4984 48.75 88.6846V90.0488C48.2057 89.6621 47.5469 89.4688 46.7734 89.4688C46.0286 89.4688 45.4307 89.7266 44.9795 90.2422C44.5283 90.7507 44.3027 91.4238 44.3027 92.2617C44.3027 93.0996 44.5283 93.7764 44.9795 94.292C45.4307 94.8005 46.0286 95.0547 46.7734 95.0547C47.5397 95.0547 48.1986 94.8577 48.75 94.4639V95.8281C47.9622 96.0143 47.3034 96.1074 46.7734 96.1074C45.6204 96.1074 44.6895 95.7565 43.9805 95.0547ZM51.0273 95.0547C50.3184 94.3457 49.9639 93.4147 49.9639 92.2617C49.9639 91.1087 50.2861 90.1777 50.9307 89.4688C51.5752 88.7598 52.4274 88.4053 53.4873 88.4053C54.4756 88.4053 55.2705 88.7132 55.8721 89.3291C56.4808 89.945 56.7852 90.7542 56.7852 91.7568V92.1543C56.7852 92.5911 56.5667 92.8096 56.1299 92.8096H51.3174C51.4033 93.5329 51.6576 94.0807 52.0801 94.4531C52.5026 94.8255 53.0827 95.0117 53.8203 95.0117C54.5794 95.0117 55.2383 94.8148 55.7969 94.4209V95.8281C55.1595 96.0143 54.5007 96.1074 53.8203 96.1074C52.6673 96.1074 51.7363 95.7565 51.0273 95.0547ZM51.2852 92.2617C51.2852 92.4264 51.2887 92.5482 51.2959 92.627L52.166 91.8213H55.5283C55.5283 91.0335 55.3529 90.4355 55.002 90.0273C54.6582 89.612 54.1533 89.4043 53.4873 89.4043C52.7712 89.4043 52.2233 89.6478 51.8438 90.1348C51.4714 90.6217 51.2852 91.3307 51.2852 92.2617ZM57.7842 89.6191V88.5234H64.165V89.6191H61.6299V96H60.3086V89.6191H57.7842ZM65.7012 96V88.5234H66.915V93.9482L71.2012 88.5234H72.3076V96H71.0938V90.6826L66.8076 96H65.7012ZM73.8545 89.6191V88.5234H80.2354V89.6191H77.7002V96H76.3789V89.6191H73.8545ZM81.7715 96V88.5234H83.0928V91.1553H84.6396C85.5921 91.1553 86.362 91.3809 86.9492 91.832C87.5365 92.276 87.8301 92.8597 87.8301 93.583C87.8301 94.3063 87.5365 94.89 86.9492 95.334C86.3691 95.778 85.5993 96 84.6396 96H81.7715ZM83.0928 95.0117H84.7041C85.2269 95.0117 85.6458 94.8828 85.9609 94.625C86.2832 94.36 86.4443 94.0127 86.4443 93.583C86.4443 93.1533 86.2832 92.8096 85.9609 92.5518C85.6458 92.2868 85.2269 92.1543 84.7041 92.1543H83.0928V95.0117ZM93.5342 96V85.4404H94.9629V96H93.5342ZM95.2207 90.6182L98.9053 85.4404H100.635L96.5205 90.6074L101.011 96H99.0664L95.2207 90.6182ZM101.451 99.1904C101.924 99.1904 102.354 99.1081 102.74 98.9434C103.127 98.7786 103.467 98.5352 103.761 98.2129C104.054 97.8906 104.305 97.554 104.513 97.2031C104.728 96.8522 104.946 96.4225 105.168 95.9141L101.677 88.5234H103.234L105.705 94.5928L107.703 88.5234H109.261L106.135 96.1934C105.877 96.8307 105.605 97.3857 105.318 97.8584C105.039 98.3382 104.71 98.7786 104.33 99.1797C103.958 99.5807 103.528 99.8851 103.041 100.093C102.561 100.3 102.031 100.404 101.451 100.404V99.1904ZM110.689 100.404V88.5234H111.86L112.011 89.4043L112.784 88.5234H114.589C115.563 88.5234 116.347 88.8672 116.941 89.5547C117.543 90.235 117.844 91.1374 117.844 92.2617C117.844 93.4147 117.554 94.3457 116.974 95.0547C116.401 95.7565 115.642 96.1074 114.696 96.1074C114.145 96.1074 113.633 95.9499 113.16 95.6348C112.688 95.3197 112.304 94.8936 112.011 94.3564V100.404H110.689ZM112.011 92.1758C112.018 92.985 112.258 93.6797 112.73 94.2598C113.21 94.8327 113.787 95.1191 114.46 95.1191C115.062 95.1191 115.545 94.8577 115.91 94.335C116.275 93.8122 116.458 93.1211 116.458 92.2617C116.458 91.431 116.275 90.765 115.91 90.2637C115.545 89.7624 115.062 89.5117 114.46 89.5117H112.011V92.1758ZM119.498 96V88.5234H120.712V93.9482L124.998 88.5234H126.104V96H124.891V90.6826L120.604 96H119.498ZM127.866 96.1074V94.7002L128.758 94.6572C129.76 94.5713 130.362 94.0879 130.562 93.207C129.796 93.1068 129.191 92.8597 128.747 92.4658C128.31 92.0719 128.092 91.5635 128.092 90.9404C128.092 90.2171 128.378 89.6335 128.951 89.1895C129.531 88.7454 130.294 88.5234 131.239 88.5234H134.365V96H133.044V93.25H131.347C131.282 94.1309 131.028 94.7861 130.584 95.2158C130.147 95.6383 129.535 95.8997 128.747 96L127.866 96.1074ZM129.961 89.9092C129.596 90.167 129.413 90.5107 129.413 90.9404C129.413 91.3701 129.596 91.7174 129.961 91.9824C130.333 92.2402 130.824 92.3691 131.433 92.3691H133.044V89.5117H131.433C130.824 89.5117 130.333 89.6442 129.961 89.9092ZM136.557 96V88.5234H137.771L141.176 93.8193L144.592 88.5234H145.806V96H144.592V90.5L141.208 95.71H141.154L137.771 90.5V96H136.557ZM146.998 99.1904C147.471 99.1904 147.9 99.1081 148.287 98.9434C148.674 98.7786 149.014 98.5352 149.308 98.2129C149.601 97.8906 149.852 97.554 150.06 97.2031C150.274 96.8522 150.493 96.4225 150.715 95.9141L147.224 88.5234H148.781L151.252 94.5928L153.25 88.5234H154.808L151.682 96.1934C151.424 96.8307 151.152 97.3857 150.865 97.8584C150.586 98.3382 150.257 98.7786 149.877 99.1797C149.505 99.5807 149.075 99.8851 148.588 100.093C148.108 100.3 147.578 100.404 146.998 100.404V99.1904Z" fill="white"/>
</svg>
