<svg width="219" height="219" viewBox="0 0 219 219" fill="none" xmlns="http://www.w3.org/2000/svg">
<circle cx="109.461" cy="109.5" r="89.5" fill="#C65A32"/>
<circle cx="109.461" cy="109.5" r="98" stroke="#C65A32"/>
<path d="M109.52 218.999C109.5 218.999 109.481 219 109.462 219C109.409 219 109.357 218.999 109.305 218.999C109.376 218.999 109.448 218.999 109.52 218.999ZM106.287 218.952C106.493 218.958 106.7 218.964 106.906 218.969C106.7 218.964 106.493 218.958 106.287 218.952ZM218.941 107.482C218.954 108.154 218.962 108.826 218.962 109.5C218.962 168.752 171.9 217.01 113.116 218.938C114.689 218.885 116.264 218.799 117.838 218.679L117.762 217.687C173.807 213.447 217.962 166.63 217.962 109.5C217.962 108.832 217.953 108.165 217.941 107.5L218.941 107.482ZM38.3213 192.742C43.501 197.169 49.1072 201.123 55.0781 204.54C70.2168 213.203 87.1468 218.091 104.443 218.885C79.2486 217.748 56.2725 208.098 38.3213 192.742ZM36.5 191.149C36.7696 191.39 37.0405 191.63 37.3125 191.868C37.0406 191.63 36.7695 191.39 36.5 191.149ZM0 112.367C0.409385 127.993 4.16196 143.425 11.0898 157.595C15.5163 166.649 21.1454 174.996 27.7842 182.431C11.0737 163.729 0.691089 139.254 0 112.367ZM192.704 38.3604C208.364 56.6664 218.089 80.1976 218.903 105.979C218.215 84.585 211.273 63.8495 198.915 46.3457C196.963 43.5813 194.89 40.9177 192.704 38.3604ZM26.3242 38.2363C12.7774 54.04 4.00106 73.3982 1.05762 94.0488C0.497822 97.9763 0.154578 101.918 0.0234375 105.856C0.866655 80.0655 10.6278 56.5311 26.3242 38.2363ZM28.4443 35.8359C28.3484 35.9415 28.2528 36.0474 28.1572 36.1533C28.291 36.0052 28.425 35.8574 28.5596 35.71C28.5213 35.7519 28.4825 35.7939 28.4443 35.8359ZM113.251 0.0654297C139.399 0.954616 163.22 11.0124 181.603 27.124C171.756 18.5011 160.39 11.6655 148.009 7.00879C136.815 2.79881 125.072 0.47477 113.251 0.0654297ZM37.96 26.5664C56.2755 10.7613 79.8822 0.921427 105.764 0.0625C98.3958 0.31143 91.0356 1.30458 83.7969 3.0498C66.8039 7.14679 51.1029 15.2351 37.96 26.5664ZM108.169 0.0078125C108.064 0.00905335 107.959 0.0101749 107.854 0.0117188C107.959 0.0102054 108.064 0.00902947 108.169 0.0078125ZM109.716 0.000976562C109.569 0.000635233 109.422 0.000727426 109.275 0.000976562C109.338 0.000872922 109.4 0 109.462 0C109.547 0 109.631 0.000784519 109.716 0.000976562ZM192.01 37.5557C192.205 37.78 192.4 38.0055 192.594 38.2314C192.4 38.0054 192.205 37.7801 192.01 37.5557ZM37.415 27.041C37.5964 26.8825 37.7776 26.7238 37.96 26.5664C37.7776 26.7237 37.5965 26.8825 37.415 27.041Z" fill="#C65A32"/>
<path d="M55.1748 114V103.44H58.0322C59.1208 103.44 59.998 103.684 60.6641 104.171C61.3301 104.658 61.6631 105.295 61.6631 106.083C61.6631 106.62 61.4447 107.107 61.0078 107.544C60.5781 107.974 60.0195 108.278 59.332 108.457C60.1914 108.6 60.904 108.923 61.4697 109.424C62.0355 109.918 62.3184 110.491 62.3184 111.143C62.3184 112.002 61.9639 112.693 61.2549 113.216C60.5531 113.739 59.6257 114 58.4727 114H55.1748ZM56.6035 112.904H58.4512C59.1458 112.904 59.708 112.743 60.1377 112.421C60.5674 112.099 60.7822 111.673 60.7822 111.143C60.7822 110.57 60.5459 110.079 60.0732 109.671C59.6006 109.256 59.0312 109.048 58.3652 109.048H56.6035V112.904ZM56.6035 107.952H58.0322C58.6696 107.952 59.2139 107.77 59.665 107.404C60.1162 107.039 60.3418 106.599 60.3418 106.083C60.3418 105.618 60.1305 105.245 59.708 104.966C59.2855 104.679 58.7269 104.536 58.0322 104.536H56.6035V107.952ZM63.9727 114V106.523H65.2939V109.155H66.8408C67.7933 109.155 68.5632 109.381 69.1504 109.832C69.7376 110.276 70.0312 110.86 70.0312 111.583C70.0312 112.306 69.7376 112.89 69.1504 113.334C68.5703 113.778 67.8005 114 66.8408 114H63.9727ZM65.2939 113.012H66.9053C67.4281 113.012 67.847 112.883 68.1621 112.625C68.4844 112.36 68.6455 112.013 68.6455 111.583C68.6455 111.153 68.4844 110.81 68.1621 110.552C67.8398 110.287 67.4209 110.154 66.9053 110.154H65.2939V113.012ZM71.2344 114V106.523H72.5557V114H71.2344ZM75.3916 112.625C74.6755 111.637 74.3174 110.333 74.3174 108.715C74.3174 107.096 74.7184 105.797 75.5205 104.815C76.3226 103.827 77.3825 103.333 78.7002 103.333L80.5908 103.322V103.655C80.5908 103.884 80.4297 104.071 80.1074 104.214C79.7852 104.357 79.3304 104.429 78.7432 104.429C77.9053 104.429 77.2142 104.762 76.6699 105.428C76.1328 106.094 75.8213 106.989 75.7354 108.113C76.029 107.59 76.4193 107.175 76.9062 106.867C77.4004 106.559 77.9339 106.405 78.5068 106.405C79.5238 106.405 80.3438 106.76 80.9668 107.469C81.597 108.178 81.9121 109.109 81.9121 110.262C81.9121 111.415 81.5719 112.346 80.8916 113.055C80.2184 113.757 79.3268 114.107 78.2168 114.107C77.0495 114.107 76.1077 113.613 75.3916 112.625ZM75.7998 109.993C75.943 110.938 76.2259 111.687 76.6484 112.238C77.0781 112.783 77.6009 113.055 78.2168 113.055C78.9115 113.055 79.4701 112.8 79.8926 112.292C80.3151 111.776 80.5264 111.1 80.5264 110.262C80.5264 109.438 80.3187 108.776 79.9033 108.274C79.4951 107.766 78.9544 107.512 78.2812 107.512C77.5938 107.512 77.0065 107.755 76.5195 108.242C76.0397 108.722 75.7998 109.306 75.7998 109.993ZM83.5664 118.404V106.523H84.7373L84.8877 107.404L85.6611 106.523H87.4658C88.4398 106.523 89.224 106.867 89.8184 107.555C90.4199 108.235 90.7207 109.137 90.7207 110.262C90.7207 111.415 90.4307 112.346 89.8506 113.055C89.2777 113.757 88.5186 114.107 87.5732 114.107C87.0218 114.107 86.5098 113.95 86.0371 113.635C85.5645 113.32 85.1813 112.894 84.8877 112.356V118.404H83.5664ZM84.8877 110.176C84.8949 110.985 85.1348 111.68 85.6074 112.26C86.0872 112.833 86.6637 113.119 87.3369 113.119C87.9385 113.119 88.4219 112.858 88.7871 112.335C89.1523 111.812 89.335 111.121 89.335 110.262C89.335 109.431 89.1523 108.765 88.7871 108.264C88.4219 107.762 87.9385 107.512 87.3369 107.512H84.8877V110.176ZM91.9346 110.262C91.9346 109.137 92.2318 108.235 92.8262 107.555C93.4277 106.867 94.2155 106.523 95.1895 106.523H96.9941L97.7676 107.404L97.918 106.523H99.0889V111.98L99.1533 114.043L97.9824 113.979L97.8857 112.174C97.5993 112.761 97.209 113.23 96.7148 113.581C96.2207 113.932 95.6764 114.107 95.082 114.107C94.1367 114.107 93.374 113.757 92.7939 113.055C92.221 112.346 91.9346 111.415 91.9346 110.262ZM93.3203 110.262C93.3203 111.121 93.5029 111.812 93.8682 112.335C94.2406 112.858 94.7275 113.119 95.3291 113.119C96.0023 113.119 96.5752 112.84 97.0479 112.281C97.5277 111.723 97.7676 111.049 97.7676 110.262V107.512H95.3291C94.7275 107.512 94.2406 107.766 93.8682 108.274C93.5029 108.776 93.3203 109.438 93.3203 110.262ZM100.636 107.619V106.523H107.017V107.619H104.481V114H103.16V107.619H100.636ZM108.553 114V106.523H109.874V109.155H111.421C112.373 109.155 113.143 109.381 113.73 109.832C114.318 110.276 114.611 110.86 114.611 111.583C114.611 112.306 114.318 112.89 113.73 113.334C113.15 113.778 112.381 114 111.421 114H108.553ZM109.874 113.012H111.485C112.008 113.012 112.427 112.883 112.742 112.625C113.064 112.36 113.226 112.013 113.226 111.583C113.226 111.153 113.064 110.81 112.742 110.552C112.427 110.287 112.008 110.154 111.485 110.154H109.874V113.012ZM119.542 107.619V106.523H125.923V107.619H123.388V114H122.066V107.619H119.542ZM126.804 110.262C126.804 109.137 127.101 108.235 127.695 107.555C128.297 106.867 129.085 106.523 130.059 106.523H131.863L132.637 107.404L132.787 106.523H133.958V111.98L134.022 114.043L132.852 113.979L132.755 112.174C132.468 112.761 132.078 113.23 131.584 113.581C131.09 113.932 130.546 114.107 129.951 114.107C129.006 114.107 128.243 113.757 127.663 113.055C127.09 112.346 126.804 111.415 126.804 110.262ZM128.189 110.262C128.189 111.121 128.372 111.812 128.737 112.335C129.11 112.858 129.597 113.119 130.198 113.119C130.871 113.119 131.444 112.84 131.917 112.281C132.397 111.723 132.637 111.049 132.637 110.262V107.512H130.198C129.597 107.512 129.11 107.766 128.737 108.274C128.372 108.776 128.189 109.438 128.189 110.262ZM136.16 118.404V106.523H137.331L137.481 107.404L138.255 106.523H140.06C141.034 106.523 141.818 106.867 142.412 107.555C143.014 108.235 143.314 109.137 143.314 110.262C143.314 111.415 143.024 112.346 142.444 113.055C141.871 113.757 141.112 114.107 140.167 114.107C139.616 114.107 139.104 113.95 138.631 113.635C138.158 113.32 137.775 112.894 137.481 112.356V118.404H136.16ZM137.481 110.176C137.489 110.985 137.729 111.68 138.201 112.26C138.681 112.833 139.257 113.119 139.931 113.119C140.532 113.119 141.016 112.858 141.381 112.335C141.746 111.812 141.929 111.121 141.929 110.262C141.929 109.431 141.746 108.765 141.381 108.264C141.016 107.762 140.532 107.512 139.931 107.512H137.481V110.176ZM144.969 114V106.523H146.183V111.948L150.469 106.523H151.575V114H150.361V108.683L146.075 114H144.969ZM153.229 110.262C153.229 109.137 153.509 108.235 154.067 107.555C154.626 106.867 155.36 106.523 156.27 106.523H157.849L158.729 107.404V102.119H160.051V107.404L160.932 106.523H162.511C163.42 106.523 164.154 106.867 164.713 107.555C165.271 108.235 165.551 109.137 165.551 110.262C165.551 111.415 165.293 112.346 164.777 113.055C164.262 113.757 163.581 114.107 162.736 114.107C162.192 114.107 161.687 113.964 161.222 113.678C160.756 113.391 160.366 113.001 160.051 112.507V118.404H158.729V112.507C158.414 113.001 158.024 113.391 157.559 113.678C157.093 113.964 156.588 114.107 156.044 114.107C155.199 114.107 154.519 113.757 154.003 113.055C153.487 112.346 153.229 111.415 153.229 110.262ZM154.615 110.262C154.615 111.085 154.769 111.751 155.077 112.26C155.385 112.761 155.79 113.012 156.291 113.012C156.964 113.012 157.537 112.743 158.01 112.206C158.49 111.669 158.729 111.021 158.729 110.262V107.512H156.506C155.94 107.512 155.482 107.762 155.131 108.264C154.787 108.765 154.615 109.431 154.615 110.262ZM160.051 110.262C160.051 111.021 160.287 111.669 160.76 112.206C161.24 112.743 161.816 113.012 162.489 113.012C162.991 113.012 163.395 112.761 163.703 112.26C164.011 111.751 164.165 111.085 164.165 110.262C164.165 109.431 163.99 108.765 163.639 108.264C163.295 107.762 162.84 107.512 162.274 107.512H160.051V110.262Z" fill="white"/>
</svg>
