<svg width="121" height="43" viewBox="0 0 121 43" fill="none" xmlns="http://www.w3.org/2000/svg">
<rect width="121" height="43" rx="21.5" fill="#C65A32"/>
<path d="M26.9873 24.625C26.0993 23.6367 25.6553 22.3333 25.6553 20.7148C25.6553 19.0964 26.0993 17.7965 26.9873 16.8154C27.8753 15.8271 29.0534 15.333 30.5215 15.333C31.2305 15.333 31.9574 15.4333 32.7021 15.6338V17.127C32.1436 16.7331 31.499 16.5361 30.7686 16.5361C29.6872 16.5361 28.8135 16.9193 28.1475 17.6855C27.4886 18.4518 27.1592 19.4616 27.1592 20.7148C27.1592 21.9681 27.4671 22.9814 28.083 23.7549C28.7061 24.5212 29.526 24.9043 30.543 24.9043C31.4238 24.9043 32.1436 24.7074 32.7021 24.3135V25.7852C31.9072 26 31.1803 26.1074 30.5215 26.1074C29.0534 26.1074 27.8753 25.6133 26.9873 24.625ZM34.5605 26V18.5234H37.4502C38.3382 18.5234 39.0508 18.6846 39.5879 19.0068C40.125 19.3291 40.3936 19.7552 40.3936 20.2852C40.3936 20.6576 40.2288 20.9941 39.8994 21.2949C39.57 21.5957 39.1331 21.8213 38.5889 21.9717C39.2979 22.0719 39.8851 22.3047 40.3506 22.6699C40.8232 23.028 41.0596 23.4398 41.0596 23.9053C41.0596 24.5355 40.7695 25.0439 40.1895 25.4307C39.6165 25.8102 38.8574 26 37.9121 26H34.5605ZM35.8818 25.0117H37.6221C38.2236 25.0117 38.707 24.9115 39.0723 24.7109C39.4375 24.5033 39.6201 24.2347 39.6201 23.9053C39.6201 23.4971 39.4375 23.1676 39.0723 22.917C38.707 22.6663 38.2236 22.541 37.6221 22.541H35.8818V25.0117ZM35.8818 21.5312H37.2031C37.8047 21.5312 38.2845 21.4202 38.6426 21.1982C39.0007 20.9691 39.1797 20.6647 39.1797 20.2852C39.1797 20.056 39.0042 19.8698 38.6533 19.7266C38.3024 19.5833 37.8405 19.5117 37.2676 19.5117H35.8818V21.5312ZM42.3701 26.1074V24.7002L43.2617 24.6572C44.2643 24.5713 44.8659 24.0879 45.0664 23.207C44.3001 23.1068 43.695 22.8597 43.251 22.4658C42.8141 22.0719 42.5957 21.5635 42.5957 20.9404C42.5957 20.2171 42.8822 19.6335 43.4551 19.1895C44.0352 18.7454 44.7979 18.5234 45.7432 18.5234H48.8691V26H47.5479V23.25H45.8506C45.7861 24.1309 45.5319 24.7861 45.0879 25.2158C44.651 25.6383 44.0387 25.8997 43.251 26L42.3701 26.1074ZM44.4648 19.9092C44.0996 20.167 43.917 20.5107 43.917 20.9404C43.917 21.3701 44.0996 21.7174 44.4648 21.9824C44.8372 22.2402 45.3278 22.3691 45.9365 22.3691H47.5479V19.5117H45.9365C45.3278 19.5117 44.8372 19.6442 44.4648 19.9092ZM50.5127 25.8281V24.4639C51.1071 24.8864 51.8626 25.0977 52.7793 25.0977C53.388 25.0977 53.8786 25.001 54.251 24.8076C54.6234 24.6071 54.8096 24.3457 54.8096 24.0234C54.8096 23.6081 54.6198 23.2572 54.2402 22.9707C53.8678 22.6842 53.388 22.541 52.8008 22.541H51.7051V21.5312H52.5C53.1016 21.5312 53.5814 21.4202 53.9395 21.1982C54.2975 20.9691 54.4766 20.6647 54.4766 20.2852C54.4766 20.0417 54.3083 19.8304 53.9717 19.6514C53.6423 19.4723 53.1947 19.3757 52.6289 19.3613C51.9128 19.3613 51.2611 19.5726 50.6738 19.9951V18.6953C51.4401 18.5091 52.0846 18.416 52.6074 18.416C53.4883 18.416 54.2188 18.5951 54.7988 18.9531C55.3861 19.3112 55.6797 19.7552 55.6797 20.2852C55.6797 20.6647 55.5114 21.0085 55.1748 21.3164C54.8382 21.6172 54.3906 21.8428 53.832 21.9932C54.5267 22.1149 55.0996 22.3691 55.5508 22.7559C56.0091 23.1354 56.2383 23.5579 56.2383 24.0234C56.2383 24.6393 55.9089 25.1406 55.25 25.5273C54.5983 25.9141 53.7891 26.1074 52.8223 26.1074C52.056 26.1074 51.2861 26.0143 50.5127 25.8281ZM57.3232 22.2617C57.3232 21.1374 57.6204 20.235 58.2148 19.5547C58.8164 18.8672 59.6042 18.5234 60.5781 18.5234H62.3828L63.1562 19.4043L63.3066 18.5234H64.4775V23.9805L64.542 26.043L63.3711 25.9785L63.2744 24.1738C62.988 24.7611 62.5977 25.2301 62.1035 25.5811C61.6094 25.932 61.0651 26.1074 60.4707 26.1074C59.5254 26.1074 58.7627 25.7565 58.1826 25.0547C57.6097 24.3457 57.3232 23.4147 57.3232 22.2617ZM58.709 22.2617C58.709 23.1211 58.8916 23.8122 59.2568 24.335C59.6292 24.8577 60.1162 25.1191 60.7178 25.1191C61.391 25.1191 61.9639 24.8398 62.4365 24.2812C62.9163 23.7227 63.1562 23.0495 63.1562 22.2617V19.5117H60.7178C60.1162 19.5117 59.6292 19.766 59.2568 20.2744C58.8916 20.7757 58.709 21.4382 58.709 22.2617ZM66.0244 19.6191V18.5234H72.4053V19.6191H69.8701V26H68.5488V19.6191H66.0244ZM73.9414 26V18.5234H75.2627V21.1553H76.8096C77.762 21.1553 78.5319 21.3809 79.1191 21.832C79.7064 22.276 80 22.8597 80 23.583C80 24.3063 79.7064 24.89 79.1191 25.334C78.5391 25.778 77.7692 26 76.8096 26H73.9414ZM75.2627 25.0117H76.874C77.3968 25.0117 77.8158 24.8828 78.1309 24.625C78.4531 24.36 78.6143 24.0127 78.6143 23.583C78.6143 23.1533 78.4531 22.8096 78.1309 22.5518C77.8158 22.2868 77.3968 22.1543 76.874 22.1543H75.2627V25.0117ZM82.1484 25.0547C81.4395 24.3457 81.085 23.4147 81.085 22.2617C81.085 21.1087 81.4395 20.1777 82.1484 19.4688C82.8574 18.7598 83.7884 18.4053 84.9414 18.4053C85.4714 18.4053 86.1302 18.4984 86.918 18.6846V20.0488C86.3737 19.6621 85.7148 19.4688 84.9414 19.4688C84.1966 19.4688 83.5986 19.7266 83.1475 20.2422C82.6963 20.7507 82.4707 21.4238 82.4707 22.2617C82.4707 23.0996 82.6963 23.7764 83.1475 24.292C83.5986 24.8005 84.1966 25.0547 84.9414 25.0547C85.7077 25.0547 86.3665 24.8577 86.918 24.4639V25.8281C86.1302 26.0143 85.4714 26.1074 84.9414 26.1074C83.7884 26.1074 82.8574 25.7565 82.1484 25.0547ZM88.2393 26.1074V24.7002L89.1309 24.6572C90.1335 24.5713 90.735 24.0879 90.9355 23.207C90.1693 23.1068 89.5641 22.8597 89.1201 22.4658C88.6833 22.0719 88.4648 21.5635 88.4648 20.9404C88.4648 20.2171 88.7513 19.6335 89.3242 19.1895C89.9043 18.7454 90.667 18.5234 91.6123 18.5234H94.7383V26H93.417V23.25H91.7197C91.6553 24.1309 91.401 24.7861 90.957 25.2158C90.5202 25.6383 89.9079 25.8997 89.1201 26L88.2393 26.1074ZM90.334 19.9092C89.9688 20.167 89.7861 20.5107 89.7861 20.9404C89.7861 21.3701 89.9688 21.7174 90.334 21.9824C90.7064 22.2402 91.1969 22.3691 91.8057 22.3691H93.417V19.5117H91.8057C91.1969 19.5117 90.7064 19.6442 90.334 19.9092Z" fill="white"/>
</svg>
