<svg width="219" height="219" viewBox="0 0 219 219" fill="none" xmlns="http://www.w3.org/2000/svg">
<circle cx="109.499" cy="109.5" r="89.5" fill="#C65A32"/>
<circle cx="109.499" cy="109.5" r="98" stroke="#C65A32"/>
<path d="M219 109.5C219 169.975 169.975 219 109.5 219V218C169.423 218 218 169.423 218 109.5H219ZM38.3008 192.691C41.5855 195.503 45.0448 198.127 48.665 200.546C65.668 211.907 85.4916 218.265 105.882 218.938C80.1109 218.102 56.5925 208.361 38.3008 192.691ZM36.6816 191.278C36.8836 191.458 37.0866 191.637 37.29 191.815C37.1443 191.687 36.9976 191.56 36.8525 191.432L36.6816 191.278ZM35.9326 190.605L35.875 190.554C35.8187 190.503 35.7632 190.451 35.707 190.399C35.7823 190.468 35.8572 190.537 35.9326 190.605ZM30.0967 184.9C30.2219 185.032 30.3477 185.164 30.4736 185.295C30.3477 185.164 30.2219 185.032 30.0967 184.9ZM0.0986328 114.165C0.641651 126.898 3.40667 139.506 8.33496 151.404C12.9043 162.436 19.2215 172.583 26.9873 181.484C11.1352 163.329 1.17707 139.895 0.0986328 114.165ZM0.000976562 109.637C0.000920876 109.591 0 109.546 0 109.5C0 109.476 0.000961006 109.452 0.000976562 109.428C0.000931064 109.497 0.000889107 109.567 0.000976562 109.637ZM192.691 38.3008C208.361 56.5925 218.102 80.1109 218.938 105.882C218.265 85.4916 211.907 65.668 200.546 48.665C198.127 45.0448 195.503 41.5855 192.691 38.3008ZM27.0566 37.4365C14.4748 51.8304 5.8508 69.3038 2.10449 88.1377C0.946517 93.9592 0.268545 99.839 0.0654297 105.72C0.951425 79.6046 10.9826 55.8108 27.0566 37.4365ZM191.432 36.8525C191.547 36.9823 191.66 37.1138 191.774 37.2441C191.609 37.0563 191.445 36.8683 191.278 36.6816L191.432 36.8525ZM190.554 35.875L190.605 35.9326C190.537 35.8572 190.468 35.7823 190.399 35.707C190.451 35.7632 190.503 35.8187 190.554 35.875ZM184.745 29.9502C184.931 30.126 185.116 30.3024 185.301 30.4795C185.116 30.3024 184.931 30.126 184.745 29.9502ZM114.338 0.106445C140.111 1.22696 163.571 11.2574 181.719 27.1934C172.761 19.3335 162.533 12.9446 151.404 8.33496C139.56 3.42897 127.012 0.667021 114.338 0.106445ZM105.72 0.0654297C99.839 0.268545 93.9592 0.94652 88.1377 2.10449C69.3119 5.84917 51.8454 14.4671 37.4551 27.04C55.8268 10.9755 79.6135 0.951124 105.72 0.0654297Z" fill="#C65A32"/>
<path d="M55.2129 114V103.44H58.0703C59.1589 103.44 60.0361 103.684 60.7021 104.171C61.3682 104.658 61.7012 105.295 61.7012 106.083C61.7012 106.62 61.4827 107.107 61.0459 107.544C60.6162 107.974 60.0576 108.278 59.3701 108.457C60.2295 108.6 60.9421 108.923 61.5078 109.424C62.0736 109.918 62.3564 110.491 62.3564 111.143C62.3564 112.002 62.002 112.693 61.293 113.216C60.5911 113.739 59.6637 114 58.5107 114H55.2129ZM56.6416 112.904H58.4893C59.1839 112.904 59.7461 112.743 60.1758 112.421C60.6055 112.099 60.8203 111.673 60.8203 111.143C60.8203 110.57 60.584 110.079 60.1113 109.671C59.6387 109.256 59.0693 109.048 58.4033 109.048H56.6416V112.904ZM56.6416 107.952H58.0703C58.7077 107.952 59.252 107.77 59.7031 107.404C60.1543 107.039 60.3799 106.599 60.3799 106.083C60.3799 105.618 60.1686 105.245 59.7461 104.966C59.3236 104.679 58.765 104.536 58.0703 104.536H56.6416V107.952ZM64.0107 114V106.523H65.332V109.155H66.8789C67.8314 109.155 68.6012 109.381 69.1885 109.832C69.7757 110.276 70.0693 110.86 70.0693 111.583C70.0693 112.306 69.7757 112.89 69.1885 113.334C68.6084 113.778 67.8385 114 66.8789 114H64.0107ZM65.332 113.012H66.9434C67.4661 113.012 67.8851 112.883 68.2002 112.625C68.5225 112.36 68.6836 112.013 68.6836 111.583C68.6836 111.153 68.5225 110.81 68.2002 110.552C67.8779 110.287 67.459 110.154 66.9434 110.154H65.332V113.012ZM71.2725 114V106.523H72.5938V114H71.2725ZM75.4297 112.625C74.7135 111.637 74.3555 110.333 74.3555 108.715C74.3555 107.096 74.7565 105.797 75.5586 104.815C76.3607 103.827 77.4206 103.333 78.7383 103.333L80.6289 103.322V103.655C80.6289 103.884 80.4678 104.071 80.1455 104.214C79.8232 104.357 79.3685 104.429 78.7812 104.429C77.9434 104.429 77.2523 104.762 76.708 105.428C76.1709 106.094 75.8594 106.989 75.7734 108.113C76.0671 107.59 76.4574 107.175 76.9443 106.867C77.4385 106.559 77.972 106.405 78.5449 106.405C79.5618 106.405 80.3818 106.76 81.0049 107.469C81.6351 108.178 81.9502 109.109 81.9502 110.262C81.9502 111.415 81.61 112.346 80.9297 113.055C80.2565 113.757 79.3649 114.107 78.2549 114.107C77.0876 114.107 76.1458 113.613 75.4297 112.625ZM75.8379 109.993C75.9811 110.938 76.264 111.687 76.6865 112.238C77.1162 112.783 77.639 113.055 78.2549 113.055C78.9495 113.055 79.5081 112.8 79.9307 112.292C80.3532 111.776 80.5645 111.1 80.5645 110.262C80.5645 109.438 80.3568 108.776 79.9414 108.274C79.5332 107.766 78.9925 107.512 78.3193 107.512C77.6318 107.512 77.0446 107.755 76.5576 108.242C76.0778 108.722 75.8379 109.306 75.8379 109.993ZM83.6045 118.404V106.523H84.7754L84.9258 107.404L85.6992 106.523H87.5039C88.4779 106.523 89.262 106.867 89.8564 107.555C90.458 108.235 90.7588 109.137 90.7588 110.262C90.7588 111.415 90.4688 112.346 89.8887 113.055C89.3158 113.757 88.5566 114.107 87.6113 114.107C87.0599 114.107 86.5479 113.95 86.0752 113.635C85.6025 113.32 85.2194 112.894 84.9258 112.356V118.404H83.6045ZM84.9258 110.176C84.9329 110.985 85.1729 111.68 85.6455 112.26C86.1253 112.833 86.7018 113.119 87.375 113.119C87.9766 113.119 88.46 112.858 88.8252 112.335C89.1904 111.812 89.373 111.121 89.373 110.262C89.373 109.431 89.1904 108.765 88.8252 108.264C88.46 107.762 87.9766 107.512 87.375 107.512H84.9258V110.176ZM91.9727 110.262C91.9727 109.137 92.2699 108.235 92.8643 107.555C93.4658 106.867 94.2536 106.523 95.2275 106.523H97.0322L97.8057 107.404L97.9561 106.523H99.127V111.98L99.1914 114.043L98.0205 113.979L97.9238 112.174C97.6374 112.761 97.2471 113.23 96.7529 113.581C96.2588 113.932 95.7145 114.107 95.1201 114.107C94.1748 114.107 93.4121 113.757 92.832 113.055C92.2591 112.346 91.9727 111.415 91.9727 110.262ZM93.3584 110.262C93.3584 111.121 93.541 111.812 93.9062 112.335C94.2786 112.858 94.7656 113.119 95.3672 113.119C96.0404 113.119 96.6133 112.84 97.0859 112.281C97.5658 111.723 97.8057 111.049 97.8057 110.262V107.512H95.3672C94.7656 107.512 94.2786 107.766 93.9062 108.274C93.541 108.776 93.3584 109.438 93.3584 110.262ZM100.674 107.619V106.523H107.055V107.619H104.52V114H103.198V107.619H100.674ZM108.591 114V106.523H109.912V109.155H111.459C112.411 109.155 113.181 109.381 113.769 109.832C114.356 110.276 114.649 110.86 114.649 111.583C114.649 112.306 114.356 112.89 113.769 113.334C113.188 113.778 112.419 114 111.459 114H108.591ZM109.912 113.012H111.523C112.046 113.012 112.465 112.883 112.78 112.625C113.103 112.36 113.264 112.013 113.264 111.583C113.264 111.153 113.103 110.81 112.78 110.552C112.465 110.287 112.046 110.154 111.523 110.154H109.912V113.012ZM119.58 107.619V106.523H125.961V107.619H123.426V114H122.104V107.619H119.58ZM126.842 110.262C126.842 109.137 127.139 108.235 127.733 107.555C128.335 106.867 129.123 106.523 130.097 106.523H131.901L132.675 107.404L132.825 106.523H133.996V111.98L134.061 114.043L132.89 113.979L132.793 112.174C132.507 112.761 132.116 113.23 131.622 113.581C131.128 113.932 130.584 114.107 129.989 114.107C129.044 114.107 128.281 113.757 127.701 113.055C127.128 112.346 126.842 111.415 126.842 110.262ZM128.228 110.262C128.228 111.121 128.41 111.812 128.775 112.335C129.148 112.858 129.635 113.119 130.236 113.119C130.91 113.119 131.482 112.84 131.955 112.281C132.435 111.723 132.675 111.049 132.675 110.262V107.512H130.236C129.635 107.512 129.148 107.766 128.775 108.274C128.41 108.776 128.228 109.438 128.228 110.262ZM136.198 118.404V106.523H137.369L137.52 107.404L138.293 106.523H140.098C141.072 106.523 141.856 106.867 142.45 107.555C143.052 108.235 143.353 109.137 143.353 110.262C143.353 111.415 143.062 112.346 142.482 113.055C141.91 113.757 141.15 114.107 140.205 114.107C139.654 114.107 139.142 113.95 138.669 113.635C138.196 113.32 137.813 112.894 137.52 112.356V118.404H136.198ZM137.52 110.176C137.527 110.985 137.767 111.68 138.239 112.26C138.719 112.833 139.296 113.119 139.969 113.119C140.57 113.119 141.054 112.858 141.419 112.335C141.784 111.812 141.967 111.121 141.967 110.262C141.967 109.431 141.784 108.765 141.419 108.264C141.054 107.762 140.57 107.512 139.969 107.512H137.52V110.176ZM145.007 114V106.523H146.221V111.948L150.507 106.523H151.613V114H150.399V108.683L146.113 114H145.007ZM153.268 110.262C153.268 109.137 153.547 108.235 154.105 107.555C154.664 106.867 155.398 106.523 156.308 106.523H157.887L158.768 107.404V102.119H160.089V107.404L160.97 106.523H162.549C163.458 106.523 164.192 106.867 164.751 107.555C165.31 108.235 165.589 109.137 165.589 110.262C165.589 111.415 165.331 112.346 164.815 113.055C164.3 113.757 163.619 114.107 162.774 114.107C162.23 114.107 161.725 113.964 161.26 113.678C160.794 113.391 160.404 113.001 160.089 112.507V118.404H158.768V112.507C158.452 113.001 158.062 113.391 157.597 113.678C157.131 113.964 156.626 114.107 156.082 114.107C155.237 114.107 154.557 113.757 154.041 113.055C153.525 112.346 153.268 111.415 153.268 110.262ZM154.653 110.262C154.653 111.085 154.807 111.751 155.115 112.26C155.423 112.761 155.828 113.012 156.329 113.012C157.002 113.012 157.575 112.743 158.048 112.206C158.528 111.669 158.768 111.021 158.768 110.262V107.512H156.544C155.978 107.512 155.52 107.762 155.169 108.264C154.825 108.765 154.653 109.431 154.653 110.262ZM160.089 110.262C160.089 111.021 160.325 111.669 160.798 112.206C161.278 112.743 161.854 113.012 162.527 113.012C163.029 113.012 163.433 112.761 163.741 112.26C164.049 111.751 164.203 111.085 164.203 110.262C164.203 109.431 164.028 108.765 163.677 108.264C163.333 107.762 162.878 107.512 162.312 107.512H160.089V110.262Z" fill="white"/>
</svg>
