<svg width="257" height="43" viewBox="0 0 257 43" fill="none" xmlns="http://www.w3.org/2000/svg">
<rect x="0.5" y="0.5" width="256" height="42" rx="21" stroke="#C65A32"/>
<path d="M26.2139 26V15.4404H33.6904V26H32.2617V16.5361H27.6426V26H26.2139ZM36 30.4043V18.5234H37.1709L37.3213 19.4043L38.0947 18.5234H39.8994C40.8734 18.5234 41.6576 18.8672 42.252 19.5547C42.8535 20.235 43.1543 21.1374 43.1543 22.2617C43.1543 23.4147 42.8643 24.3457 42.2842 25.0547C41.7113 25.7565 40.9521 26.1074 40.0068 26.1074C39.4554 26.1074 38.9434 25.9499 38.4707 25.6348C37.998 25.3197 37.6149 24.8936 37.3213 24.3564V30.4043H36ZM37.3213 22.1758C37.3285 22.985 37.5684 23.6797 38.041 24.2598C38.5208 24.8327 39.0973 25.1191 39.7705 25.1191C40.3721 25.1191 40.8555 24.8577 41.2207 24.335C41.5859 23.8122 41.7686 23.1211 41.7686 22.2617C41.7686 21.431 41.5859 20.765 41.2207 20.2637C40.8555 19.7624 40.3721 19.5117 39.7705 19.5117H37.3213V22.1758ZM45.3672 25.0547C44.7012 24.3457 44.3682 23.4147 44.3682 22.2617C44.3682 21.1087 44.7012 20.1777 45.3672 19.4688C46.0332 18.7598 46.9105 18.4053 47.999 18.4053C49.0876 18.4053 49.9648 18.7598 50.6309 19.4688C51.2969 20.1777 51.6299 21.1087 51.6299 22.2617C51.6299 23.4147 51.2969 24.3457 50.6309 25.0547C49.9648 25.7565 49.0876 26.1074 47.999 26.1074C46.9105 26.1074 46.0332 25.7565 45.3672 25.0547ZM46.3662 20.1885C45.958 20.7113 45.7539 21.4023 45.7539 22.2617C45.7539 23.1211 45.958 23.8122 46.3662 24.335C46.7816 24.8577 47.3258 25.1191 47.999 25.1191C48.6722 25.1191 49.2129 24.8577 49.6211 24.335C50.0365 23.8122 50.2441 23.1211 50.2441 22.2617C50.2441 21.4023 50.0365 20.7113 49.6211 20.1885C49.2129 19.6657 48.6722 19.4043 47.999 19.4043C47.3258 19.4043 46.7816 19.6657 46.3662 20.1885ZM53.8965 25.0547C53.1875 24.3457 52.833 23.4147 52.833 22.2617C52.833 21.1087 53.1875 20.1777 53.8965 19.4688C54.6055 18.7598 55.5365 18.4053 56.6895 18.4053C57.2194 18.4053 57.8783 18.4984 58.666 18.6846V20.0488C58.1217 19.6621 57.4629 19.4688 56.6895 19.4688C55.9447 19.4688 55.3467 19.7266 54.8955 20.2422C54.4443 20.7507 54.2188 21.4238 54.2188 22.2617C54.2188 23.0996 54.4443 23.7764 54.8955 24.292C55.3467 24.8005 55.9447 25.0547 56.6895 25.0547C57.4557 25.0547 58.1146 24.8577 58.666 24.4639V25.8281C57.8783 26.0143 57.2194 26.1074 56.6895 26.1074C55.5365 26.1074 54.6055 25.7565 53.8965 25.0547ZM60.4277 26V18.5234H61.6416L65.0469 23.8193L68.4629 18.5234H69.6768V26H68.4629V20.5L65.0791 25.71H65.0254L61.6416 20.5V26H60.4277ZM72.3086 25.0547C71.6426 24.3457 71.3096 23.4147 71.3096 22.2617C71.3096 21.1087 71.6426 20.1777 72.3086 19.4688C72.9746 18.7598 73.8519 18.4053 74.9404 18.4053C76.029 18.4053 76.9062 18.7598 77.5723 19.4688C78.2383 20.1777 78.5713 21.1087 78.5713 22.2617C78.5713 23.4147 78.2383 24.3457 77.5723 25.0547C76.9062 25.7565 76.029 26.1074 74.9404 26.1074C73.8519 26.1074 72.9746 25.7565 72.3086 25.0547ZM73.3076 20.1885C72.8994 20.7113 72.6953 21.4023 72.6953 22.2617C72.6953 23.1211 72.8994 23.8122 73.3076 24.335C73.723 24.8577 74.2673 25.1191 74.9404 25.1191C75.6136 25.1191 76.1543 24.8577 76.5625 24.335C76.9779 23.8122 77.1855 23.1211 77.1855 22.2617C77.1855 21.4023 76.9779 20.7113 76.5625 20.1885C76.1543 19.6657 75.6136 19.4043 74.9404 19.4043C74.2673 19.4043 73.723 19.6657 73.3076 20.1885ZM79.4521 19.6191V18.5234H85.833V19.6191H83.2979V26H81.9766V19.6191H79.4521ZM87.3691 30.4043V18.5234H88.54L88.6904 19.4043L89.4639 18.5234H91.2686C92.2425 18.5234 93.0267 18.8672 93.6211 19.5547C94.2227 20.235 94.5234 21.1374 94.5234 22.2617C94.5234 23.4147 94.2334 24.3457 93.6533 25.0547C93.0804 25.7565 92.3213 26.1074 91.376 26.1074C90.8245 26.1074 90.3125 25.9499 89.8398 25.6348C89.3672 25.3197 88.984 24.8936 88.6904 24.3564V30.4043H87.3691ZM88.6904 22.1758C88.6976 22.985 88.9375 23.6797 89.4102 24.2598C89.89 24.8327 90.4665 25.1191 91.1396 25.1191C91.7412 25.1191 92.2246 24.8577 92.5898 24.335C92.9551 23.8122 93.1377 23.1211 93.1377 22.2617C93.1377 21.431 92.9551 20.765 92.5898 20.2637C92.2246 19.7624 91.7412 19.5117 91.1396 19.5117H88.6904V22.1758ZM96.8008 25.0547C96.0918 24.3457 95.7373 23.4147 95.7373 22.2617C95.7373 21.1087 96.0596 20.1777 96.7041 19.4688C97.3486 18.7598 98.2008 18.4053 99.2607 18.4053C100.249 18.4053 101.044 18.7132 101.646 19.3291C102.254 19.945 102.559 20.7542 102.559 21.7568V22.1543C102.559 22.5911 102.34 22.8096 101.903 22.8096H97.0908C97.1768 23.5329 97.431 24.0807 97.8535 24.4531C98.276 24.8255 98.8561 25.0117 99.5938 25.0117C100.353 25.0117 101.012 24.8148 101.57 24.4209V25.8281C100.933 26.0143 100.274 26.1074 99.5938 26.1074C98.4408 26.1074 97.5098 25.7565 96.8008 25.0547ZM97.0586 22.2617C97.0586 22.4264 97.0622 22.5482 97.0693 22.627L97.9395 21.8213H101.302C101.302 21.0335 101.126 20.4355 100.775 20.0273C100.432 19.612 99.9268 19.4043 99.2607 19.4043C98.5446 19.4043 97.9967 19.6478 97.6172 20.1348C97.2448 20.6217 97.0586 21.3307 97.0586 22.2617ZM103.558 19.6191V18.5234H109.938V19.6191H107.403V26H106.082V19.6191H103.558ZM111.475 26V18.5234H112.796V21.1553H114.343C115.295 21.1553 116.065 21.3809 116.652 21.832C117.24 22.276 117.533 22.8597 117.533 23.583C117.533 24.3063 117.24 24.89 116.652 25.334C116.072 25.778 115.302 26 114.343 26H111.475ZM112.796 25.0117H114.407C114.93 25.0117 115.349 24.8828 115.664 24.625C115.986 24.36 116.147 24.0127 116.147 23.583C116.147 23.1533 115.986 22.8096 115.664 22.5518C115.349 22.2868 114.93 22.1543 114.407 22.1543H112.796V25.0117ZM123.119 26V18.5234H126.009C126.897 18.5234 127.609 18.6846 128.146 19.0068C128.684 19.3291 128.952 19.7552 128.952 20.2852C128.952 20.6576 128.787 20.9941 128.458 21.2949C128.129 21.5957 127.692 21.8213 127.147 21.9717C127.856 22.0719 128.444 22.3047 128.909 22.6699C129.382 23.028 129.618 23.4398 129.618 23.9053C129.618 24.5355 129.328 25.0439 128.748 25.4307C128.175 25.8102 127.416 26 126.471 26H123.119ZM124.44 25.0117H126.181C126.782 25.0117 127.266 24.9115 127.631 24.7109C127.996 24.5033 128.179 24.2347 128.179 23.9053C128.179 23.4971 127.996 23.1676 127.631 22.917C127.266 22.6663 126.782 22.541 126.181 22.541H124.44V25.0117ZM124.44 21.5312H125.762C126.363 21.5312 126.843 21.4202 127.201 21.1982C127.559 20.9691 127.738 20.6647 127.738 20.2852C127.738 20.056 127.563 19.8698 127.212 19.7266C126.861 19.5833 126.399 19.5117 125.826 19.5117H124.44V21.5312ZM131.885 25.0547C131.176 24.3457 130.821 23.4147 130.821 22.2617C130.821 21.1087 131.176 20.1777 131.885 19.4688C132.594 18.7598 133.525 18.4053 134.678 18.4053C135.208 18.4053 135.867 18.4984 136.654 18.6846V20.0488C136.11 19.6621 135.451 19.4688 134.678 19.4688C133.933 19.4688 133.335 19.7266 132.884 20.2422C132.433 20.7507 132.207 21.4238 132.207 22.2617C132.207 23.0996 132.433 23.7764 132.884 24.292C133.335 24.8005 133.933 25.0547 134.678 25.0547C135.444 25.0547 136.103 24.8577 136.654 24.4639V25.8281C135.867 26.0143 135.208 26.1074 134.678 26.1074C133.525 26.1074 132.594 25.7565 131.885 25.0547ZM138.932 25.0547C138.223 24.3457 137.868 23.4147 137.868 22.2617C137.868 21.1087 138.19 20.1777 138.835 19.4688C139.479 18.7598 140.332 18.4053 141.392 18.4053C142.38 18.4053 143.175 18.7132 143.776 19.3291C144.385 19.945 144.689 20.7542 144.689 21.7568V22.1543C144.689 22.5911 144.471 22.8096 144.034 22.8096H139.222C139.308 23.5329 139.562 24.0807 139.984 24.4531C140.407 24.8255 140.987 25.0117 141.725 25.0117C142.484 25.0117 143.143 24.8148 143.701 24.4209V25.8281C143.064 26.0143 142.405 26.1074 141.725 26.1074C140.572 26.1074 139.641 25.7565 138.932 25.0547ZM139.189 22.2617C139.189 22.4264 139.193 22.5482 139.2 22.627L140.07 21.8213H143.433C143.433 21.0335 143.257 20.4355 142.906 20.0273C142.562 19.612 142.058 19.4043 141.392 19.4043C140.675 19.4043 140.128 19.6478 139.748 20.1348C139.376 20.6217 139.189 21.3307 139.189 22.2617ZM149.749 22.2617C149.749 21.1374 150.046 20.235 150.641 19.5547C151.242 18.8672 152.03 18.5234 153.004 18.5234H154.809L155.582 19.4043L155.732 18.5234H156.903V23.9805L156.968 26.043L155.797 25.9785L155.7 24.1738C155.414 24.7611 155.023 25.2301 154.529 25.5811C154.035 25.932 153.491 26.1074 152.896 26.1074C151.951 26.1074 151.188 25.7565 150.608 25.0547C150.035 24.3457 149.749 23.4147 149.749 22.2617ZM151.135 22.2617C151.135 23.1211 151.317 23.8122 151.683 24.335C152.055 24.8577 152.542 25.1191 153.144 25.1191C153.817 25.1191 154.39 24.8398 154.862 24.2812C155.342 23.7227 155.582 23.0495 155.582 22.2617V19.5117H153.144C152.542 19.5117 152.055 19.766 151.683 20.2744C151.317 20.7757 151.135 21.4382 151.135 22.2617ZM159.105 26V18.5234H160.427V26H159.105ZM160.824 22.1543L164.025 18.5234H165.669L162.296 22.1436L166.045 26H164.144L160.824 22.1543ZM166.808 19.6191V18.5234H173.188V19.6191H170.653V26H169.332V19.6191H166.808ZM174.725 26V18.5234H175.938V23.9482L180.225 18.5234H181.331V26H180.117V20.6826L175.831 26H174.725ZM183.533 26V18.5234H186.423C187.311 18.5234 188.023 18.6846 188.561 19.0068C189.098 19.3291 189.366 19.7552 189.366 20.2852C189.366 20.6576 189.201 20.9941 188.872 21.2949C188.543 21.5957 188.106 21.8213 187.562 21.9717C188.271 22.0719 188.858 22.3047 189.323 22.6699C189.796 23.028 190.032 23.4398 190.032 23.9053C190.032 24.5355 189.742 25.0439 189.162 25.4307C188.589 25.8102 187.83 26 186.885 26H183.533ZM184.854 25.0117H186.595C187.196 25.0117 187.68 24.9115 188.045 24.7109C188.41 24.5033 188.593 24.2347 188.593 23.9053C188.593 23.4971 188.41 23.1676 188.045 22.917C187.68 22.6663 187.196 22.541 186.595 22.541H184.854V25.0117ZM184.854 21.5312H186.176C186.777 21.5312 187.257 21.4202 187.615 21.1982C187.973 20.9691 188.152 20.6647 188.152 20.2852C188.152 20.056 187.977 19.8698 187.626 19.7266C187.275 19.5833 186.813 19.5117 186.24 19.5117H184.854V21.5312ZM191.783 26V18.5234H193.104V21.4883H197.068V18.5234H198.39V26H197.068V22.5947H193.104V26H191.783ZM201.043 25.0547C200.377 24.3457 200.044 23.4147 200.044 22.2617C200.044 21.1087 200.377 20.1777 201.043 19.4688C201.709 18.7598 202.586 18.4053 203.675 18.4053C204.763 18.4053 205.641 18.7598 206.307 19.4688C206.973 20.1777 207.306 21.1087 207.306 22.2617C207.306 23.4147 206.973 24.3457 206.307 25.0547C205.641 25.7565 204.763 26.1074 203.675 26.1074C202.586 26.1074 201.709 25.7565 201.043 25.0547ZM202.042 20.1885C201.634 20.7113 201.43 21.4023 201.43 22.2617C201.43 23.1211 201.634 23.8122 202.042 24.335C202.457 24.8577 203.002 25.1191 203.675 25.1191C204.348 25.1191 204.889 24.8577 205.297 24.335C205.712 23.8122 205.92 23.1211 205.92 22.2617C205.92 21.4023 205.712 20.7113 205.297 20.1885C204.889 19.6657 204.348 19.4043 203.675 19.4043C203.002 19.4043 202.457 19.6657 202.042 20.1885ZM209.572 25.0547C208.863 24.3457 208.509 23.4147 208.509 22.2617C208.509 21.1087 208.863 20.1777 209.572 19.4688C210.281 18.7598 211.212 18.4053 212.365 18.4053C212.895 18.4053 213.554 18.4984 214.342 18.6846V20.0488C213.798 19.6621 213.139 19.4688 212.365 19.4688C211.62 19.4688 211.022 19.7266 210.571 20.2422C210.12 20.7507 209.895 21.4238 209.895 22.2617C209.895 23.0996 210.12 23.7764 210.571 24.292C211.022 24.8005 211.62 25.0547 212.365 25.0547C213.132 25.0547 213.79 24.8577 214.342 24.4639V25.8281C213.554 26.0143 212.895 26.1074 212.365 26.1074C211.212 26.1074 210.281 25.7565 209.572 25.0547ZM215.448 19.6191V18.5234H221.829V19.6191H219.294V26H217.973V19.6191H215.448ZM223.365 26V18.5234H224.579V23.9482L228.865 18.5234H229.972V26H228.758V20.6826L224.472 26H223.365Z" fill="#2E261D"/>
<rect x="0.5" y="0.5" width="256" height="42" rx="21" stroke="#C65A32"/>
</svg>
