<svg width="179" height="179" viewBox="0 0 179 179" fill="none" xmlns="http://www.w3.org/2000/svg">
<circle cx="89.5" cy="89.5" r="89.5" fill="#C65A32"/>
<path d="M35.2139 94V83.4404H38.0713C39.1598 83.4404 40.0371 83.6839 40.7031 84.1709C41.3691 84.6579 41.7021 85.2952 41.7021 86.083C41.7021 86.6201 41.4837 87.1071 41.0469 87.5439C40.6172 87.9736 40.0586 88.278 39.3711 88.457C40.2305 88.6003 40.943 88.9225 41.5088 89.4238C42.0745 89.918 42.3574 90.4909 42.3574 91.1426C42.3574 92.002 42.0029 92.693 41.2939 93.2158C40.5921 93.7386 39.6647 94 38.5117 94H35.2139ZM36.6426 92.9043H38.4902C39.1849 92.9043 39.7471 92.7432 40.1768 92.4209C40.6064 92.0986 40.8213 91.6725 40.8213 91.1426C40.8213 90.5697 40.585 90.0791 40.1123 89.6709C39.6396 89.2555 39.0703 89.0479 38.4043 89.0479H36.6426V92.9043ZM36.6426 87.9521H38.0713C38.7087 87.9521 39.2529 87.7695 39.7041 87.4043C40.1553 87.0391 40.3809 86.5986 40.3809 86.083C40.3809 85.6175 40.1696 85.2451 39.7471 84.9658C39.3245 84.6794 38.766 84.5361 38.0713 84.5361H36.6426V87.9521ZM44.0117 94V86.5234H45.333V89.1553H46.8799C47.8324 89.1553 48.6022 89.3809 49.1895 89.832C49.7767 90.276 50.0703 90.8597 50.0703 91.583C50.0703 92.3063 49.7767 92.89 49.1895 93.334C48.6094 93.778 47.8395 94 46.8799 94H44.0117ZM45.333 93.0117H46.9443C47.4671 93.0117 47.8861 92.8828 48.2012 92.625C48.5234 92.36 48.6846 92.0127 48.6846 91.583C48.6846 91.1533 48.5234 90.8096 48.2012 90.5518C47.8789 90.2868 47.46 90.1543 46.9443 90.1543H45.333V93.0117ZM51.2734 94V86.5234H52.5947V94H51.2734ZM55.4307 92.625C54.7145 91.6367 54.3564 90.3333 54.3564 88.7148C54.3564 87.0964 54.7575 85.7965 55.5596 84.8154C56.3617 83.8271 57.4215 83.333 58.7393 83.333L60.6299 83.3223V83.6553C60.6299 83.8844 60.4688 84.0706 60.1465 84.2139C59.8242 84.3571 59.3695 84.4287 58.7822 84.4287C57.9443 84.4287 57.2533 84.7617 56.709 85.4277C56.1719 86.0938 55.8604 86.9889 55.7744 88.1133C56.068 87.5905 56.4583 87.1751 56.9453 86.8672C57.4395 86.5592 57.973 86.4053 58.5459 86.4053C59.5628 86.4053 60.3828 86.7598 61.0059 87.4688C61.6361 88.1777 61.9512 89.1087 61.9512 90.2617C61.9512 91.4147 61.611 92.3457 60.9307 93.0547C60.2575 93.7565 59.3659 94.1074 58.2559 94.1074C57.0885 94.1074 56.1468 93.6133 55.4307 92.625ZM55.8389 89.9932C55.9821 90.9385 56.265 91.6868 56.6875 92.2383C57.1172 92.7826 57.64 93.0547 58.2559 93.0547C58.9505 93.0547 59.5091 92.8005 59.9316 92.292C60.3542 91.7764 60.5654 91.0996 60.5654 90.2617C60.5654 89.4382 60.3577 88.7757 59.9424 88.2744C59.5342 87.766 58.9935 87.5117 58.3203 87.5117C57.6328 87.5117 57.0456 87.7552 56.5586 88.2422C56.0788 88.722 55.8389 89.3057 55.8389 89.9932ZM63.6055 98.4043V86.5234H64.7764L64.9268 87.4043L65.7002 86.5234H67.5049C68.4788 86.5234 69.263 86.8672 69.8574 87.5547C70.459 88.235 70.7598 89.1374 70.7598 90.2617C70.7598 91.4147 70.4697 92.3457 69.8896 93.0547C69.3167 93.7565 68.5576 94.1074 67.6123 94.1074C67.0609 94.1074 66.5488 93.9499 66.0762 93.6348C65.6035 93.3197 65.2204 92.8936 64.9268 92.3564V98.4043H63.6055ZM64.9268 90.1758C64.9339 90.985 65.1738 91.6797 65.6465 92.2598C66.1263 92.8327 66.7028 93.1191 67.376 93.1191C67.9775 93.1191 68.4609 92.8577 68.8262 92.335C69.1914 91.8122 69.374 91.1211 69.374 90.2617C69.374 89.431 69.1914 88.765 68.8262 88.2637C68.4609 87.7624 67.9775 87.5117 67.376 87.5117H64.9268V90.1758ZM71.9736 90.2617C71.9736 89.1374 72.2708 88.235 72.8652 87.5547C73.4668 86.8672 74.2546 86.5234 75.2285 86.5234H77.0332L77.8066 87.4043L77.957 86.5234H79.1279V91.9805L79.1924 94.043L78.0215 93.9785L77.9248 92.1738C77.6383 92.7611 77.248 93.2301 76.7539 93.5811C76.2598 93.932 75.7155 94.1074 75.1211 94.1074C74.1758 94.1074 73.4131 93.7565 72.833 93.0547C72.2601 92.3457 71.9736 91.4147 71.9736 90.2617ZM73.3594 90.2617C73.3594 91.1211 73.542 91.8122 73.9072 92.335C74.2796 92.8577 74.7666 93.1191 75.3682 93.1191C76.0413 93.1191 76.6143 92.8398 77.0869 92.2812C77.5667 91.7227 77.8066 91.0495 77.8066 90.2617V87.5117H75.3682C74.7666 87.5117 74.2796 87.766 73.9072 88.2744C73.542 88.7757 73.3594 89.4382 73.3594 90.2617ZM80.6748 87.6191V86.5234H87.0557V87.6191H84.5205V94H83.1992V87.6191H80.6748ZM88.5918 94V86.5234H89.9131V89.1553H91.46C92.4124 89.1553 93.1823 89.3809 93.7695 89.832C94.3568 90.276 94.6504 90.8597 94.6504 91.583C94.6504 92.3063 94.3568 92.89 93.7695 93.334C93.1895 93.778 92.4196 94 91.46 94H88.5918ZM89.9131 93.0117H91.5244C92.0472 93.0117 92.4661 92.8828 92.7812 92.625C93.1035 92.36 93.2646 92.0127 93.2646 91.583C93.2646 91.1533 93.1035 90.8096 92.7812 90.5518C92.4661 90.2868 92.0472 90.1543 91.5244 90.1543H89.9131V93.0117ZM99.5811 87.6191V86.5234H105.962V87.6191H103.427V94H102.105V87.6191H99.5811ZM106.843 90.2617C106.843 89.1374 107.14 88.235 107.734 87.5547C108.336 86.8672 109.124 86.5234 110.098 86.5234H111.902L112.676 87.4043L112.826 86.5234H113.997V91.9805L114.062 94.043L112.891 93.9785L112.794 92.1738C112.507 92.7611 112.117 93.2301 111.623 93.5811C111.129 93.932 110.585 94.1074 109.99 94.1074C109.045 94.1074 108.282 93.7565 107.702 93.0547C107.129 92.3457 106.843 91.4147 106.843 90.2617ZM108.229 90.2617C108.229 91.1211 108.411 91.8122 108.776 92.335C109.149 92.8577 109.636 93.1191 110.237 93.1191C110.91 93.1191 111.483 92.8398 111.956 92.2812C112.436 91.7227 112.676 91.0495 112.676 90.2617V87.5117H110.237C109.636 87.5117 109.149 87.766 108.776 88.2744C108.411 88.7757 108.229 89.4382 108.229 90.2617ZM116.199 98.4043V86.5234H117.37L117.521 87.4043L118.294 86.5234H120.099C121.073 86.5234 121.857 86.8672 122.451 87.5547C123.053 88.235 123.354 89.1374 123.354 90.2617C123.354 91.4147 123.063 92.3457 122.483 93.0547C121.91 93.7565 121.151 94.1074 120.206 94.1074C119.655 94.1074 119.143 93.9499 118.67 93.6348C118.197 93.3197 117.814 92.8936 117.521 92.3564V98.4043H116.199ZM117.521 90.1758C117.528 90.985 117.768 91.6797 118.24 92.2598C118.72 92.8327 119.297 93.1191 119.97 93.1191C120.571 93.1191 121.055 92.8577 121.42 92.335C121.785 91.8122 121.968 91.1211 121.968 90.2617C121.968 89.431 121.785 88.765 121.42 88.2637C121.055 87.7624 120.571 87.5117 119.97 87.5117H117.521V90.1758ZM125.008 94V86.5234H126.222V91.9482L130.508 86.5234H131.614V94H130.4V88.6826L126.114 94H125.008ZM133.269 90.2617C133.269 89.1374 133.548 88.235 134.106 87.5547C134.665 86.8672 135.399 86.5234 136.309 86.5234H137.888L138.769 87.4043V82.1191H140.09V87.4043L140.971 86.5234H142.55C143.459 86.5234 144.193 86.8672 144.752 87.5547C145.311 88.235 145.59 89.1374 145.59 90.2617C145.59 91.4147 145.332 92.3457 144.816 93.0547C144.301 93.7565 143.62 94.1074 142.775 94.1074C142.231 94.1074 141.726 93.9642 141.261 93.6777C140.795 93.3913 140.405 93.001 140.09 92.5068V98.4043H138.769V92.5068C138.453 93.001 138.063 93.3913 137.598 93.6777C137.132 93.9642 136.627 94.1074 136.083 94.1074C135.238 94.1074 134.558 93.7565 134.042 93.0547C133.526 92.3457 133.269 91.4147 133.269 90.2617ZM134.654 90.2617C134.654 91.0853 134.808 91.7513 135.116 92.2598C135.424 92.7611 135.829 93.0117 136.33 93.0117C137.003 93.0117 137.576 92.7432 138.049 92.2061C138.529 91.6689 138.769 91.0208 138.769 90.2617V87.5117H136.545C135.979 87.5117 135.521 87.7624 135.17 88.2637C134.826 88.765 134.654 89.431 134.654 90.2617ZM140.09 90.2617C140.09 91.0208 140.326 91.6689 140.799 92.2061C141.279 92.7432 141.855 93.0117 142.528 93.0117C143.03 93.0117 143.434 92.7611 143.742 92.2598C144.05 91.7513 144.204 91.0853 144.204 90.2617C144.204 89.431 144.029 88.765 143.678 88.2637C143.334 87.7624 142.879 87.5117 142.313 87.5117H140.09V90.2617Z" fill="white"/>
</svg>
