<svg width="70" height="78" viewBox="0 0 70 78" fill="none" xmlns="http://www.w3.org/2000/svg">
<path d="M53.7002 65.9002C57.7002 64.3002 61.0335 63.0002 63.7002 62.0002C66.4335 60.9335 68.2669 60.6335 69.2002 61.1002C69.5335 61.3002 69.4335 62.1669 68.9002 63.7002C68.3669 65.2335 67.4002 66.9002 66.0002 68.7002C64.6002 70.5002 62.8335 72.1669 60.7002 73.7002C58.5669 75.1669 56.0669 75.9669 53.2002 76.1002C52.8002 76.1669 52.3335 76.2002 51.8002 76.2002C51.2669 76.2002 50.7002 76.2002 50.1002 76.2002C48.5669 76.2002 46.8669 76.1669 45.0002 76.1002C43.1335 76.0335 41.5335 75.9335 40.2002 75.8002C38.3335 75.7335 36.6669 75.7002 35.2002 75.7002C33.7335 75.6335 32.4002 75.6002 31.2002 75.6002C28.5335 75.6002 26.3669 75.6669 24.7002 75.8002C23.0335 75.8669 21.4002 75.9335 19.8002 76.0002C17.4669 76.1335 15.2669 76.3002 13.2002 76.5002C11.2002 76.7002 9.13353 76.9002 7.0002 77.1002C4.46686 77.3002 2.66686 77.1335 1.6002 76.6002C0.533529 76.0669 0.000195399 75.2335 0.000195399 74.1002C0.000195399 73.1669 0.366862 71.9002 1.1002 70.3002C2.23353 67.9669 3.5002 66.5335 4.9002 66.0002C6.3002 65.4002 8.16686 65.2002 10.5002 65.4002C10.8335 65.4002 11.5335 65.1669 12.6002 64.7002C18.0669 59.1669 22.7335 53.9669 26.6002 49.1002C30.4669 44.2335 33.6002 39.7002 36.0002 35.5002C38.4002 31.3002 40.1335 27.4669 41.2002 24.0002C42.3335 20.4669 42.9335 17.3002 43.0002 14.5002C43.0669 13.2335 42.9002 12.3002 42.5002 11.7002C42.1002 11.1002 41.4669 10.4669 40.6002 9.80019C40.0669 9.46686 39.1002 9.23353 37.7002 9.10019C36.3669 8.90019 34.3002 8.73353 31.5002 8.60019C29.1002 8.53352 26.7335 8.56686 24.4002 8.70019C22.1335 8.83353 20.6002 8.93352 19.8002 9.00019C19.4669 9.00019 19.1335 9.00019 18.8002 9.00019C18.4669 9.00019 18.2002 9.10019 18.0002 9.30019C17.8669 9.50019 17.9002 9.90019 18.1002 10.5002C18.3002 11.0335 18.7669 11.9002 19.5002 13.1002C20.3002 14.3669 20.8002 15.4002 21.0002 16.2002C21.2669 17.0002 21.2669 17.4669 21.0002 17.6002C20.6669 17.7335 20.3002 17.6669 19.9002 17.4002C19.5002 17.1335 19.0335 16.7669 18.5002 16.3002C18.0335 15.8335 17.5002 15.3335 16.9002 14.8002C16.3669 14.2002 15.8002 13.7002 15.2002 13.3002C14.3335 12.7002 13.6002 12.2002 13.0002 11.8002C12.4002 11.3335 11.8002 10.9335 11.2002 10.6002C10.6669 10.2669 10.1335 9.93353 9.6002 9.60019C9.06686 9.26686 8.43353 8.90019 7.7002 8.50019C6.96686 8.10019 6.66686 7.63353 6.8002 7.10019C6.93353 6.50019 7.26686 5.86686 7.8002 5.20019C8.4002 4.53353 9.06686 3.90019 9.8002 3.30019C10.6002 2.70019 11.2669 2.16686 11.8002 1.70019C12.3335 1.30019 12.9002 1.06686 13.5002 1.00019C14.1002 0.866857 14.6669 0.866857 15.2002 1.00019C15.7335 1.06686 16.2669 1.20019 16.8002 1.40019C17.3335 1.60019 17.8335 1.76686 18.3002 1.90019C18.7002 2.03352 19.3002 2.16686 20.1002 2.30019C20.9002 2.43353 21.8335 2.56686 22.9002 2.70019C24.0335 2.83353 25.2002 2.96686 26.4002 3.10019C27.6669 3.16686 28.9335 3.20019 30.2002 3.20019C31.5335 3.20019 32.7669 3.16686 33.9002 3.10019C35.1002 2.96686 36.1335 2.73353 37.0002 2.40019C38.2669 1.93352 39.7335 1.43352 41.4002 0.900194C43.1335 0.300193 44.9002 0.000193357 46.7002 0.000193357C47.4335 0.000193357 48.1669 0.0668592 48.9002 0.200191C49.6335 0.333526 50.3669 0.566861 51.1002 0.900194C52.3002 1.50019 53.4669 2.23353 54.6002 3.10019C55.7335 3.90019 56.7002 4.73353 57.5002 5.60019C58.3669 6.46686 59.0002 7.30019 59.4002 8.10019C59.8669 8.90019 60.0002 9.56686 59.8002 10.1002C59.6669 10.4335 59.4002 10.8002 59.0002 11.2002C58.6669 11.5335 58.2335 11.9335 57.7002 12.4002C57.2335 12.8002 56.7669 13.2335 56.3002 13.7002C55.8335 14.1002 55.5002 14.5002 55.3002 14.9002C54.7002 15.9669 54.2002 17.0669 53.8002 18.2002C53.4669 19.2669 53.1335 20.3669 52.8002 21.5002C52.5335 22.6335 52.2002 23.8002 51.8002 25.0002C51.4002 26.1335 50.9002 27.2669 50.3002 28.4002C49.6335 29.6669 48.7335 31.4002 47.6002 33.6002C46.4669 35.7335 44.9002 38.3002 42.9002 41.3002C40.9002 44.3002 38.3335 47.6335 35.2002 51.3002C32.0669 54.9669 28.2002 58.9335 23.6002 63.2002C22.6002 64.1335 21.9002 64.8335 21.5002 65.3002C21.1002 65.7669 20.9002 66.1669 20.9002 66.5002C20.8335 67.0335 21.5669 67.5335 23.1002 68.0002C24.6335 68.4002 26.2669 68.7002 28.0002 68.9002C29.7335 69.1002 31.7002 69.2002 33.9002 69.2002C36.1002 69.2002 38.6002 69.1002 41.4002 68.9002C43.5335 68.7669 45.6669 68.4335 47.8002 67.9002C50.0002 67.3002 51.9669 66.6335 53.7002 65.9002Z" fill="#2E261D"/>
</svg>
