<svg width="31" height="77" viewBox="0 0 31 77" fill="none" xmlns="http://www.w3.org/2000/svg">
<path d="M16.7999 23.4998C16.9332 21.9665 16.8666 20.8998 16.5999 20.2998C16.3999 19.6998 16.0332 19.3998 15.4999 19.3998C14.8332 19.3998 14.0666 19.6998 13.1999 20.2998C12.3999 20.8998 11.6332 21.4665 10.8999 21.9998C10.1666 22.4665 9.2999 23.0331 8.2999 23.6998C7.2999 24.2998 6.26657 24.8331 5.1999 25.2998C4.1999 25.7665 3.26657 26.0998 2.3999 26.2998C1.53324 26.4998 0.866569 26.3998 0.399903 25.9998C0.133236 25.7998 0.266569 25.3331 0.799903 24.5998C1.33324 23.7998 1.96657 22.9998 2.6999 22.1998C3.56657 21.2665 4.5999 20.2331 5.7999 19.0998C6.1999 18.6998 6.8999 18.0331 7.8999 17.0998C8.96657 16.1665 10.1332 15.0665 11.3999 13.7998C12.6666 12.5331 13.9666 11.1331 15.2999 9.5998C16.6332 8.06647 17.8332 6.4998 18.8999 4.8998C21.2332 1.63314 23.1999 -0.00019598 24.7999 -0.00019598C25.7332 -0.00019598 26.5666 0.399803 27.2999 1.1998C28.0999 1.93313 28.8999 2.96647 29.6999 4.2998C30.5666 5.96647 30.9999 7.36647 30.9999 8.4998C30.9999 9.2998 30.8332 9.9998 30.4999 10.5998C30.2332 11.1331 29.8999 11.6331 29.4999 12.0998C29.0999 12.5665 28.6999 12.9665 28.2999 13.2998C27.8999 13.6331 27.6332 13.9665 27.4999 14.2998C27.2999 14.7665 27.0999 15.8331 26.8999 17.4998C26.6999 19.0998 26.4999 21.0331 26.2999 23.2998C26.1666 25.4998 25.9999 27.8998 25.7999 30.4998C25.6666 33.0998 25.5332 35.6665 25.3999 38.1998C25.3332 40.7331 25.2332 43.0998 25.0999 45.2998C25.0332 47.4998 24.9999 49.2665 24.9999 50.5998C24.9332 52.1998 24.9666 53.6998 25.0999 55.0998C25.2999 56.4998 25.4999 57.8331 25.6999 59.0998C25.8999 60.3665 26.0999 61.5665 26.2999 62.6998C26.4999 63.8331 26.5999 64.9331 26.5999 65.9998C26.5999 66.5998 26.5666 67.1998 26.4999 67.7998C26.4332 68.3998 26.2999 68.9998 26.0999 69.5998C25.8332 70.3998 25.5332 71.2331 25.1999 72.0998C24.8666 72.9665 24.4999 73.7331 24.0999 74.3998C23.6999 75.0665 23.2666 75.5998 22.7999 75.9998C22.3332 76.3998 21.7999 76.5998 21.1999 76.5998C20.5999 76.5331 19.9666 76.2665 19.2999 75.7998C18.6999 75.3331 18.0999 74.7665 17.4999 74.0998C16.9666 73.3665 16.4999 72.5998 16.0999 71.7998C15.6999 70.9998 15.3999 70.2331 15.1999 69.4998C14.9999 68.6331 14.9666 67.2665 15.0999 65.3998C15.2332 63.4665 15.3999 60.7331 15.5999 57.1998C15.8666 53.6665 16.1332 49.1665 16.3999 43.6998C16.6666 38.2331 16.7999 31.4998 16.7999 23.4998Z" fill="#2E261D"/>
</svg>
